<svg data-test="privacy-choices" xmlns="http://www.w3.org/2000/svg" viewBox="0 0 30 14" class="booking-web-app__sc-1jwy0ls-0 booking-web-app__sc-o743dv-0 iupWnu ihESpQ"><g fill="#fff"><path d="M7.4 0h15.2c3.8 0 7 3.1 7 7s-3.1 7-7 7H7.4c-3.9 0-7-3.1-7-7s3.1-7 7-7Zm0 1.2C4.2 1.2 1.6 3.8 1.6 7c0 3.2 2.6 5.8 5.8 5.8h6.8l3.1-11.6H7.4Zm17.2 3.6c.2-.2.2-.6 0-.8-.2-.2-.6-.2-.8 0l-2.2 2.2L19.4 4c-.2-.2-.6-.2-.8 0-.2.2-.2.6 0 .8L20.8 7l-2.1 2.2c-.2.2-.2.6 0 .8.2.2.6.2.8 0l2.2-2.2 2.2 2.2c.2.2.6.2.8 0 .2-.2.2-.6 0-.8L22.5 7l2.1-2.2Z"></path><path d="M12.7 4.1c.2.2.3.6.1.8L8.6 9.8c-.1.1-.2.2-.3.2-.2.1-.5.1-.7-.1L5.4 7.7c-.2-.2-.2-.6 0-.8.2-.2.6-.2.8 0L8 8.6l3.8-4.5c.2-.2.6-.2.9 0Z"></path></g><defs><clipPath id="a"><path fill="#fff" d="M0 0h30v14H0z"></path></clipPath></defs></svg>